<?xml version="1.0" encoding="UTF-8"?>
<svg id="Layer_1" xmlns="http://www.w3.org/2000/svg" viewBox="0 0 470.7 700">
    <defs>
        <style>
            .cls-1 {
                fill: #231f20;
            }
        </style>
    </defs>
    <path class="cls-1"
        d="m391.1,218.2v-.5L234.2,0,80.7,217.2l-.2.5L0,561.4v.5l233.3,137.4,1.5.7,235.4-138.2.5-.2-79.6-343.4h0Zm-121.4,345.1l-35.3,111.6-33.6-111.6h68.9Zm-82.2,0l37,118.2-198.5-118.2h161.5Zm194.6-154.9l-32.6-56.2,35-111.2,65.7,284.8-68.1-117.4Zm-142.1-245.4V27.5l138.9,193.1-37.5,117.7-101.4-175.3h0Zm45.3,388.9l59.1-185.8,28,48.2,79.8,137.7h-166.9v-.1Zm159.1,11.7l-200.2,118.2,37.7-118.2h162.5Zm-107.6-210.7l-63.5,199.2h-77.6l-62.8-200.7,101.2-175.6,102.7,177.1h0Zm-152.9,199H18.2l107.7-185.6,58,185.6h0Zm44.7-389.4l-100.2,173.9-36.2-116L228.6,27.5v135h0ZM20.9,523.4L86.1,241l34.5,109.7-99.7,172.7h0Z" />
</svg>